<mxfile host="app.diagrams.net" modified="2024-05-16T12:48:46.875Z" agent="Mozilla/5.0 (Windows NT 10.0; Win64; x64) AppleWebKit/537.36 (KHTML, like Gecko) Chrome/124.0.0.0 Safari/537.36" version="24.4.2" etag="ZsWlZ9JaKqjcTD4ZxSFQ" type="github">
  <diagram name="Page-1" id="5CL0Gajyi_t_uHDQH539">
    <mxGraphModel>
      <root>
        <mxCell id="0" />
        <mxCell id="1" parent="0" />
      </root>
    </mxGraphModel>
  </diagram>
</mxfile>
